<svg xmlns="http://www.w3.org/2000/svg" xmlns:xlink="http://www.w3.org/1999/xlink" xmlns:inkscape="http://www.inkscape.org/namespaces/inkscape" version="1.1" width="88.947" height="147.421" viewBox="0 0 88.947 147.421">
<path transform="matrix(1,0,0,-1,34.109,73.71001)" stroke-width=".64406" stroke-linecap="square" stroke-miterlimit="10" stroke-linejoin="miter" fill="none" stroke="#000000" d="M0 7.41711C0-3.15526 0 4.91652 0-5.65584"/>
<path transform="matrix(1,0,0,-1,34.109,73.71001)" stroke-width=".64406" stroke-linecap="square" stroke-miterlimit="10" stroke-linejoin="miter" fill="none" stroke="#000000" d="M-6.16846-25.04076V-33.62865"/>
<path transform="matrix(1,0,0,-1,34.109,73.71001)" stroke-width=".64406" stroke-linecap="square" stroke-miterlimit="10" stroke-linejoin="miter" fill="none" stroke="#000000" d="M-5.66005 25.04077V33.62866"/>
<path transform="matrix(1,0,0,-1,34.109,55.206007)" d="M0-12.2133 8.46115 2.44272C9.5187 4.27457 8.46101 6.10667 6.34592 6.10667H-6.3459C-8.461 6.10667-9.51872 4.27458-8.46117 2.44273Z" fill="#ffffff"/>
<path transform="matrix(1,0,0,-1,34.109,55.206007)" stroke-width=".85876" stroke-linecap="butt" stroke-miterlimit="10" stroke-linejoin="miter" fill="none" stroke="#000000" d="M0-12.2133 8.46115 2.44272C9.5187 4.27457 8.46101 6.10667 6.34592 6.10667H-6.3459C-8.461 6.10667-9.51872 4.27458-8.46117 2.44273Z"/>
<text xml:space="preserve" transform="matrix(1 0 -0 1 .0000019073487 147.421)" font-size="9.96264" font-family="CMMI10" font-style="italic"><tspan y="-88.756" x="31.203">&#x03bb;</tspan></text>
<path transform="matrix(1,0,0,-1,34.109,91.628009)" d="M0 13.38747-9.2746-2.67758C-10.43382-4.68552-9.27444-6.69377-6.95601-6.69377H6.956C9.27443-6.69377 10.43384-4.68553 9.27461-2.6776Z" fill="#ffffff"/>
<path transform="matrix(1,0,0,-1,34.109,91.628009)" stroke-width=".85876" stroke-linecap="butt" stroke-miterlimit="10" stroke-linejoin="miter" fill="none" stroke="#000000" d="M0 13.38747-9.2746-2.67758C-10.43382-4.68552-9.27444-6.69377-6.95601-6.69377H6.956C9.27443-6.69377 10.43384-4.68553 9.27461-2.6776Z"/>
<text xml:space="preserve" transform="matrix(1 0 -0 1 .0000019073487 147.421)" font-size="9.96264" font-family="CMR10"><tspan y="-52.334" x="30.234">@</tspan></text>
<path transform="matrix(1,0,0,-1,34.109,73.71001)" stroke-width=".79701" stroke-linecap="butt" stroke-miterlimit="10" stroke-linejoin="miter" fill="none" stroke="#000000" d="M5.66005 25.04077C34.00687 53.38757 34.51526-53.38756 6.16846-25.04076"/>
</svg>
