<svg xmlns="http://www.w3.org/2000/svg" xmlns:xlink="http://www.w3.org/1999/xlink" xmlns:inkscape="http://www.inkscape.org/namespaces/inkscape" version="1.1" width="101.263" height="136.244" viewBox="0 0 101.263 136.244">
<path transform="matrix(1,0,0,-1,50.631,53.876008)" stroke-width=".64406" stroke-linecap="square" stroke-miterlimit="10" stroke-linejoin="miter" fill="none" stroke="#000000" d="M0 7.41711C0-3.15526 0 4.91652 0-5.65584"/>
<path transform="matrix(1,0,0,-1,50.631,53.876008)" stroke-width=".64406" stroke-linecap="square" stroke-miterlimit="10" stroke-linejoin="miter" fill="none" stroke="#000000" d="M6.16846-35.00456C6.16846-26.41667 6.16846-33.62865 6.16846-25.04076"/>
<path transform="matrix(1,0,0,-1,50.631,53.876008)" stroke-width=".64406" stroke-linecap="square" stroke-miterlimit="10" stroke-linejoin="miter" fill="none" stroke="#000000" d="M-6.16846-25.04076V-33.62865"/>
<path transform="matrix(1,0,0,-1,50.631,53.876008)" stroke-width=".64406" stroke-linecap="square" stroke-miterlimit="10" stroke-linejoin="miter" fill="none" stroke="#000000" d="M5.66005 25.04077V33.62866"/>
<path transform="matrix(1,0,0,-1,50.631,53.876008)" stroke-width=".64406" stroke-linecap="square" stroke-miterlimit="10" stroke-linejoin="miter" fill="none" stroke="#000000" d="M-5.66005 25.04077V33.62866"/>
<path transform="matrix(1,0,0,-1,50.631,53.876008)" stroke-width=".64406" stroke-linecap="square" stroke-miterlimit="10" stroke-linejoin="miter" fill="none" stroke="#000000" d="M6.16846-51.5495V-62.12189"/>
<path transform="matrix(1,0,0,-1,50.631,35.371007)" d="M0-12.2133 8.46115 2.44272C9.5187 4.27457 8.46101 6.10667 6.34592 6.10667H-6.3459C-8.461 6.10667-9.51872 4.27458-8.46117 2.44273Z" fill="#ffffff"/>
<path transform="matrix(1,0,0,-1,50.631,35.371007)" stroke-width=".85876" stroke-linecap="butt" stroke-miterlimit="10" stroke-linejoin="miter" fill="none" stroke="#000000" d="M0-12.2133 8.46115 2.44272C9.5187 4.27457 8.46101 6.10667 6.34592 6.10667H-6.3459C-8.461 6.10667-9.51872 4.27458-8.46117 2.44273Z"/>
<text xml:space="preserve" transform="matrix(1 0 -0 1 0 136.244)" font-size="9.96264" font-family="CMMI10" font-style="italic"><tspan y="-97.414" x="47.726">&#x03bb;</tspan></text>
<path transform="matrix(1,0,0,-1,50.631,71.79301)" d="M0 13.38747-9.2746-2.67758C-10.43382-4.68552-9.27444-6.69377-6.95601-6.69377H6.956C9.27443-6.69377 10.43384-4.68553 9.27461-2.6776Z" fill="#ffffff"/>
<path transform="matrix(1,0,0,-1,50.631,71.79301)" stroke-width=".85876" stroke-linecap="butt" stroke-miterlimit="10" stroke-linejoin="miter" fill="none" stroke="#000000" d="M0 13.38747-9.2746-2.67758C-10.43382-4.68552-9.27444-6.69377-6.95601-6.69377H6.956C9.27443-6.69377 10.43384-4.68553 9.27461-2.6776Z"/>
<text xml:space="preserve" transform="matrix(1 0 -0 1 0 136.244)" font-size="9.96264" font-family="CMR10"><tspan y="-60.992" x="46.757">@</tspan></text>
<path transform="matrix(1,0,0,-1,50.631,53.876008)" d="M6.16846-52.67523 14.13141-38.88216C15.12668-37.15819 14.13127-35.43394 12.14072-35.43394H.1962C-1.79433-35.43394-2.78976-37.15817-1.7945-38.88214Z" fill="#ffffff"/>
<path transform="matrix(1,0,0,-1,50.631,53.876008)" stroke-width=".85876" stroke-linecap="butt" stroke-miterlimit="10" stroke-linejoin="miter" fill="none" stroke="#000000" d="M6.16846-52.67523 14.13141-38.88216C15.12668-37.15819 14.13127-35.43394 12.14072-35.43394H.1962C-1.79433-35.43394-2.78976-37.15817-1.7945-38.88214Z"/>
<text xml:space="preserve" transform="matrix(1 0 -0 1 0 136.244)" font-size="9.96264" font-family="CMMI10" font-style="italic"><tspan y="-39.043" x="53.595">&#x03b1;</tspan></text>
<path transform="matrix(1,0,0,-1,50.631,53.876008)" stroke-width=".3985" stroke-linecap="butt" stroke-miterlimit="10" stroke-linejoin="miter" fill="none" stroke="#0000ff" d="M30.50784 .00084C30.50784 16.84993 16.84935 30.50842 .00026 30.50842-16.8488 30.50842-30.5073 16.84993-30.5073 .00084-30.5073-16.84822-16.8488-30.50671 .00026-30.50671 16.84935-30.50671 30.50784-16.84822 30.50784 .00084ZM.00026 .00084"/>
</svg>
