<svg xmlns="http://www.w3.org/2000/svg" xmlns:xlink="http://www.w3.org/1999/xlink" xmlns:inkscape="http://www.inkscape.org/namespaces/inkscape" version="1.1" width="61.378" height="85.169" viewBox="0 0 61.378 85.169">
<path transform="matrix(1,0,0,-1,30.689,42.585)" stroke-width=".64406" stroke-linecap="square" stroke-miterlimit="10" stroke-linejoin="miter" fill="none" stroke="#000000" d="M0 6.53648C0-4.03589 0 4.03589 0-6.53648"/>
<path transform="matrix(1,0,0,-1,30.689,28.175)" d="M0-8.99913 6.23444 1.79988C7.01366 3.14961 6.23433 4.49957 4.67586 4.49957H-4.67584C-6.23431 4.49957-7.01367 3.14963-6.23445 1.7999Z" fill="#ffffff"/>
<path transform="matrix(1,0,0,-1,30.689,28.175)" stroke-width=".85876" stroke-linecap="butt" stroke-miterlimit="10" stroke-linejoin="miter" fill="none" stroke="#000000" d="M0-8.99913 6.23444 1.79988C7.01366 3.14961 6.23433 4.49957 4.67586 4.49957H-4.67584C-6.23431 4.49957-7.01367 3.14963-6.23445 1.7999Z"/>
<text xml:space="preserve" transform="matrix(1 0 -0 1 0 85.169)" font-size="9.96264" font-family="CMMI10" font-style="italic"><tspan y="-54.849" x="28.366">&#x03b5;</tspan></text>
<path transform="matrix(1,0,0,-1,30.689,56.994)" d="M0 8.99913-6.23444-1.79988C-7.01366-3.14961-6.23433-4.49957-4.67586-4.49957H4.67584C6.23431-4.49957 7.01367-3.14963 6.23445-1.7999Z" fill="#ffffff"/>
<path transform="matrix(1,0,0,-1,30.689,56.994)" stroke-width=".85876" stroke-linecap="butt" stroke-miterlimit="10" stroke-linejoin="miter" fill="none" stroke="#000000" d="M0 8.99913-6.23444-1.79988C-7.01366-3.14961-6.23433-4.49957-4.67586-4.49957H4.67584C6.23431-4.49957 7.01367-3.14963 6.23445-1.7999Z"/>
<text xml:space="preserve" transform="matrix(1 0 -0 1 0 85.169)" font-size="9.96264" font-family="CMMI10" font-style="italic"><tspan y="-26.03" x="28.366">&#x03b5;</tspan></text>
</svg>
