<svg xmlns="http://www.w3.org/2000/svg" xmlns:xlink="http://www.w3.org/1999/xlink" xmlns:inkscape="http://www.inkscape.org/namespaces/inkscape" version="1.1" width="149.021" height="137.322" viewBox="0 0 149.021 137.322">
<path transform="matrix(1,0,0,-1,34.109,83.44601)" stroke-width=".64406" stroke-linecap="square" stroke-miterlimit="10" stroke-linejoin="miter" fill="none" stroke="#000000" d="M0 5.65585C0-4.9165 0 3.15527 0-7.4171"/>
<path transform="matrix(1,0,0,-1,34.109,83.44601)" stroke-width=".64406" stroke-linecap="square" stroke-miterlimit="10" stroke-linejoin="miter" fill="none" stroke="#000000" d="M6.16844 36.9883C6.16844 26.41591 6.16847 33.62866 6.16847 25.04077"/>
<path transform="matrix(1,0,0,-1,34.109,83.44601)" stroke-width=".64406" stroke-linecap="square" stroke-miterlimit="10" stroke-linejoin="miter" fill="none" stroke="#000000" d="M11.8285 54.61194C11.8285 63.19984 .50838 63.19984 .50838 54.61194"/>
<path transform="matrix(1,0,0,-1,34.109,83.44601)" stroke-width=".64406" stroke-linecap="square" stroke-miterlimit="10" stroke-linejoin="miter" fill="none" stroke="#000000" d="M-5.66003-25.04076C-5.66003-33.62865 5.66006-33.62865 5.66006-25.04076"/>
<path transform="matrix(1,0,0,-1,34.109,83.44601)" stroke-width=".64406" stroke-linecap="square" stroke-miterlimit="10" stroke-linejoin="miter" fill="none" stroke="#000000" d="M-6.16844 25.04077V33.62866"/>
<path transform="matrix(1,0,0,-1,34.109,83.44601)" stroke-width=".64406" stroke-linecap="square" stroke-miterlimit="10" stroke-linejoin="miter" fill="none" stroke="#000000" d="M90.7005 24.45367C90.7005 33.04156 79.38037 33.04156 79.38037 24.45367"/>
<path transform="matrix(1,0,0,-1,34.109,83.44601)" stroke-width=".64406" stroke-linecap="square" stroke-miterlimit="10" stroke-linejoin="miter" fill="none" stroke="#000000" d="M85.04044 6.83002V-3.74236"/>
<path transform="matrix(1,0,0,-1,34.109,65.52901)" d="M0-13.38747 9.2746 2.67758C10.43382 4.68552 9.27444 6.69377 6.95601 6.69377H-6.956C-9.27443 6.69377-10.43384 4.68553-9.27461 2.6776Z" fill="#ffffff"/>
<path transform="matrix(1,0,0,-1,34.109,65.52901)" stroke-width=".85876" stroke-linecap="butt" stroke-miterlimit="10" stroke-linejoin="miter" fill="none" stroke="#000000" d="M0-13.38747 9.2746 2.67758C10.43382 4.68552 9.27444 6.69377 6.95601 6.69377H-6.956C-9.27443 6.69377-10.43384 4.68553-9.27461 2.6776Z"/>
<text xml:space="preserve" transform="matrix(1 0 -0 1 0 137.322)" font-size="9.96264" font-family="CMR10"><tspan y="-68.334" x="30.235">@</tspan></text>
<path transform="matrix(1,0,0,-1,34.109,101.951007)" d="M0 12.2133-8.46115-2.44272C-9.5187-4.27457-8.46101-6.10667-6.34592-6.10667H6.3459C8.461-6.10667 9.51872-4.27458 8.46117-2.44273Z" fill="#ffffff"/>
<path transform="matrix(1,0,0,-1,34.109,101.951007)" stroke-width=".85876" stroke-linecap="butt" stroke-miterlimit="10" stroke-linejoin="miter" fill="none" stroke="#000000" d="M0 12.2133-8.46115-2.44272C-9.5187-4.27457-8.46101-6.10667-6.34592-6.10667H6.3459C8.461-6.10667 9.51872-4.27458 8.46117-2.44273Z"/>
<text xml:space="preserve" transform="matrix(1 0 -0 1 .0000019073487 137.322)" font-size="9.96264" font-family="CMMI10" font-style="italic"><tspan y="-31.912" x="31.203">&#x03bb;</tspan></text>
<path transform="matrix(1,0,0,-1,34.109,83.44601)" d="M6.16844 35.86256 14.62961 50.51862C15.68716 52.35045 14.62947 54.18257 12.51437 54.18257H-.17746C-2.29256 54.18257-3.35028 52.35046-2.29272 50.51863Z" fill="#ffffff"/>
<path transform="matrix(1,0,0,-1,34.109,83.44601)" stroke-width=".85876" stroke-linecap="butt" stroke-miterlimit="10" stroke-linejoin="miter" fill="none" stroke="#000000" d="M6.16844 35.86256 14.62961 50.51862C15.68716 52.35045 14.62947 54.18257 12.51437 54.18257H-.17746C-2.29256 54.18257-3.35028 52.35046-2.29272 50.51863Z"/>
<text xml:space="preserve" transform="matrix(1 0 -0 1 .0000038146974 137.322)" font-size="9.96264" font-family="CMMI10" font-style="italic"><tspan y="-98.492" x="37.371">&#x03bb;</tspan></text>
<text xml:space="preserve" transform="matrix(1 0 -0 1 0 137.322)" font-size="9.96264" font-family="CMSY10" font-style="italic"><tspan y="-52.048" x="71.647">&#x2192;</tspan></text>
<path transform="matrix(1,0,0,-1,34.109,83.44601)" d="M85.04044 5.70428 93.5016 20.36034C94.55916 22.19217 93.50146 24.02429 91.38637 24.02429H78.69452C76.57942 24.02429 75.5217 22.19218 76.57925 20.36035Z" fill="#ffffff"/>
<path transform="matrix(1,0,0,-1,34.109,83.44601)" stroke-width=".85876" stroke-linecap="butt" stroke-miterlimit="10" stroke-linejoin="miter" fill="none" stroke="#000000" d="M85.04044 5.70428 93.5016 20.36034C94.55916 22.19217 93.50146 24.02429 91.38637 24.02429H78.69452C76.57942 24.02429 75.5217 22.19218 76.57925 20.36035Z"/>
<text xml:space="preserve" transform="matrix(1 0 -0 1 .0000076293949 137.322)" font-size="9.96264" font-family="CMMI10" font-style="italic"><tspan y="-68.334" x="116.242">&#x03bb;</tspan></text>
</svg>
